HIERARCHY
ROOT Hips
{
	OFFSET -3.958830 18.904000 13.208200
	CHANNELS 6 Xposition Yposition Zposition Zrotation Yrotation Xrotation 
	JOINT LHipJoint
	{
		OFFSET 0.000000 0.000000 0.000000
		CHANNELS 3 Zrotation Yrotation Xrotation
		JOINT LeftUpLeg
		{
			OFFSET 1.800000 -1.400000 0.085000
			CHANNELS 3 Zrotation Yrotation Xrotation
			JOINT LeftLeg
			{
				OFFSET 2.215000 -6.000000 0.000000
				CHANNELS 3 Zrotation Yrotation Xrotation
				JOINT LeftFoot
				{
					OFFSET 2.500000 -6.900000 0.000000
					CHANNELS 3 Zrotation Yrotation Xrotation
					JOINT LeftToeBase
					{
						OFFSET 0.200000 -0.500000 1.950000
						CHANNELS 3 Zrotation Yrotation Xrotation
						End Site
						{
							OFFSET 0.000000 0.000000 0.000000
						}
					}
				}
			}
		}
	}
	JOINT RHipJoint
	{
		OFFSET 0.000000 0.000000 0.000000
		CHANNELS 3 Zrotation Yrotation Xrotation
		JOINT RightUpLeg
		{
			OFFSET -1.800000 -1.400000 0.085000
			CHANNELS 3 Zrotation Yrotation Xrotation
			JOINT RightLeg
			{
				OFFSET -2.215000 -6.000000 0.000000
				CHANNELS 3 Zrotation Yrotation Xrotation
				JOINT RightFoot
				{
					OFFSET -2.500000 -6.900000 0.000000
					CHANNELS 3 Zrotation Yrotation Xrotation
					JOINT RightToeBase
					{
						OFFSET -0.200000 -0.500000 1.950000
						CHANNELS 3 Zrotation Yrotation Xrotation
						End Site
						{
							OFFSET 0.000000 0.000000 0.000000
						}
					}
				}
			}
		}
	}
	JOINT LowerBack
	{
		OFFSET 0.000000 0.000000 0.000000
		CHANNELS 3 Zrotation Yrotation Xrotation
		JOINT Spine
		{
			OFFSET -0.087000 1.940000 -0.288900
			CHANNELS 3 Zrotation Yrotation Xrotation
			JOINT Spine1
			{
				OFFSET 0.000000 1.950000 0.060000
				CHANNELS 3 Zrotation Yrotation Xrotation
				JOINT Neck
				{
					OFFSET 0.000000 0.000000 0.000000
					CHANNELS 3 Zrotation Yrotation Xrotation
					JOINT Neck1
					{
						OFFSET 0.000000 1.600000 0.340000
						CHANNELS 3 Zrotation Yrotation Xrotation
						JOINT Head
						{
							OFFSET 0.000000 1.667000 -0.240000
							CHANNELS 3 Zrotation Yrotation Xrotation
							End Site
							{
								OFFSET 0.000000 0.000000 0.000000
							}
						}
					}
				}
				JOINT LeftShoulder
				{
					OFFSET 0.000000 0.000000 0.000000
					CHANNELS 3 Zrotation Yrotation Xrotation
					JOINT LeftArm
					{
						OFFSET 2.700000 1.550000 -0.730000
						CHANNELS 3 Zrotation Yrotation Xrotation
						JOINT LeftForeArm
						{
							OFFSET 5.450000 0.000000 0.000000
							CHANNELS 3 Zrotation Yrotation Xrotation
							JOINT LeftHand
							{
								OFFSET 3.450000 0.000000 0.000000
								CHANNELS 3 Zrotation Yrotation Xrotation
								JOINT LeftHandIndex1
								{
									OFFSET 0.750000 0.000000 0.000000
									CHANNELS 3 Zrotation Yrotation Xrotation
									End Site
									{
										OFFSET 0.000000 0.000000 0.000000
									}
								}
							}
						}
					}
				}
				JOINT RightShoulder
				{
					OFFSET 0.000000 0.000000 0.000000
					CHANNELS 3 Zrotation Yrotation Xrotation
					JOINT RightArm
					{
						OFFSET -2.700000 1.550000 -0.730000
						CHANNELS 3 Zrotation Yrotation Xrotation
						JOINT RightForeArm
						{
							OFFSET -5.450000 0.000000 0.000000
							CHANNELS 3 Zrotation Yrotation Xrotation
							JOINT RightHand
							{
								OFFSET -3.450000 0.000000 0.000000
								CHANNELS 3 Zrotation Yrotation Xrotation
								JOINT RightHandIndex1
								{
									OFFSET -0.750000 0.000000 0.000000
									CHANNELS 3 Zrotation Yrotation Xrotation
									End Site
									{
										OFFSET 0.000000 0.000000 0.000000
									}
								}
							}
						}
					}
				}
			}
		}
	}
}
MOTION
Frames: 4
Frame Time: 0.016667
0.572010 17.493740 -11.164510 7.649546 1.131835 -7.324833 -15.132659 10.825695 5.570000 31.877452 -0.362736 -12.501164 -49.824760 45.519290 46.439554 2.392799 14.597092 0.033420 0.017710 -0.058370 -0.297110 18.459501 -10.158397 2.437321 -14.566619 -0.350259 -8.636213 7.679367 -4.235488 1.339661 -0.492847 -3.606345 3.134649 -0.169960 0.577250 0.158590 -3.984088 0.346904 -9.331337 -0.276863 -1.461665 27.245222 -10.179920 3.283993 9.187041 0.475374 -6.182911 -18.633217 -15.313415 -0.577578 49.601315 8.949250 -11.795840 -14.418280 -5.046078 -19.943383 10.281719 -11.926304 1.873098 -0.700196 7.109573 -7.586558 -0.945773 -3.724321 2.434644 0.704730 -0.051360 0.093820 0.243500 4.952638 29.421233 12.577752 16.548623 9.081468 -11.510955 22.358748 55.361282 8.262491 1.875613 -1.331161 -0.231030 0.535950 0.271630 0.198500 
0.528000 17.504640 -11.132900 7.829970 1.487814 -7.468320 -15.137782 10.714347 5.688855 32.267367 -0.424476 -13.407872 -52.755839 47.558613 46.324590 2.463505 14.588227 0.065521 0.033740 -0.024130 -0.285240 18.473407 -10.127093 2.400120 -14.566582 -0.419064 -8.199452 7.598644 -4.256844 1.335912 -0.513971 -3.637091 3.133271 -0.160900 0.579740 0.163130 -4.002276 0.407338 -9.364146 -0.357714 -1.634267 27.733355 -10.378946 3.219932 8.959294 0.465330 -6.127948 -18.462732 -15.069442 -0.691422 48.891899 8.718260 -11.525460 -14.740180 -4.806802 -19.722863 10.166819 -11.170031 1.747342 -0.654058 6.570804 -7.692208 -0.890536 -3.727577 2.421680 0.684430 -0.047120 0.108490 0.259220 4.666817 29.132343 12.442189 16.109944 8.781073 -11.648424 22.568362 55.950701 8.439273 1.880783 -1.349699 -0.212490 0.544060 0.248070 0.214820 
0.446580 17.512150 -11.094040 8.797481 1.943980 -7.553524 -15.224310 10.682379 5.800443 32.179022 -0.391676 -14.853304 -58.470562 50.719476 45.094930 2.478580 14.480043 0.115250 0.022040 -0.034670 -0.294390 18.409053 -10.016573 2.330870 -14.938747 -0.518602 -7.658246 7.140029 -4.261928 1.131051 -0.507394 -3.699326 3.122351 -0.157880 0.606980 0.184770 -3.791548 0.205496 -9.349739 -2.418664 -0.900752 27.823564 -9.359379 3.378035 9.354953 0.515345 -5.670698 -18.076288 -13.862811 -1.061150 47.552878 7.494810 -10.978260 -14.228570 -3.727538 -19.298491 9.940970 -11.169933 0.862474 -0.582203 6.662401 -7.489317 -0.919893 -3.793115 2.411495 0.661020 -0.004570 0.088580 0.254870 3.494962 28.518838 12.215144 15.394012 8.188412 -12.013019 22.721097 57.608231 8.729064 1.842037 -1.388612 -0.214310 0.542320 0.266580 0.211850 
0.363020 17.508880 -11.040270 9.134808 2.476195 -7.009371 -15.280889 10.639682 5.898726 32.478559 -0.021530 -17.140743 -65.437203 54.030378 42.854984 2.468852 14.206370 0.214558 -0.001690 -0.061580 -0.319670 18.381351 -9.901145 2.292424 -14.705275 -0.421973 -7.544681 7.141176 -4.228277 0.906690 -0.487225 -3.709869 3.129317 -0.167990 0.637330 0.197430 -3.675875 0.051340 -9.356542 -3.119980 -0.705393 27.139515 -9.055330 3.216420 8.974672 0.562351 -5.608665 -17.432531 -13.733456 -1.434808 46.498299 6.876440 -11.227710 -13.628640 -2.783976 -18.282517 9.486799 -11.171089 0.091994 -0.623481 6.786988 -8.155695 -0.949628 -3.828967 2.418761 0.634290 0.027850 0.061000 0.252060 2.401026 27.381032 11.724646 14.985877 8.416716 -11.513383 23.188041 58.394834 9.319635 1.845893 -1.393944 -0.215750 0.538440 0.288390 0.217650 
